<?xml version="1.0" encoding="utf-8"?>
<!-- Generator: Adobe Illustrator 16.0.0, SVG Export Plug-In . SVG Version: 6.00 Build 0)  -->
<?xml-stylesheet type="text/css" href="mapstyle.css"?>
<!DOCTYPE svg PUBLIC "-//W3C//DTD SVG 1.1//EN" "http://www.w3.org/Graphics/SVG/1.1/DTD/svg11.dtd">
<svg version="1.1"
	 id="svg2" xmlns:svg="http://www.w3.org/2000/svg" xmlns:rdf="http://www.w3.org/1999/02/22-rdf-syntax-ns#" xmlns:dc="http://purl.org/dc/elements/1.1/" xmlns:inkscape="http://www.inkscape.org/namespaces/inkscape" xmlns:sodipodi="http://sodipodi.sourceforge.net/DTD/sodipodi-0.dtd" xmlns:cc="http://creativecommons.org/ns#" sodipodi:docbase="C:\Users\Ado\Pictures" inkscape:output_extension="org.inkscape.output.svg.inkscape" sodipodi:docname="Brazil_Blank_Map_light.svg" inkscape:version="0.46" sodipodi:version="0.32"
	 xmlns="http://www.w3.org/2000/svg" xmlns:xlink="http://www.w3.org/1999/xlink" x="0px" y="0px" 
	 width="100%"
	 height="100%" 
	 viewBox="0 0 623.621 549.921" enable-background="new 0 0 623.621 549.921" xml:space="preserve">
<g id="RO">
	<path fill="#B3B3B3" d="M112.716,213.446c1.938-2.168,4.208-2.312,5.196-5.472c4.841,0.991,9.309,1.709,13.223,0.731
		c2.137-1.175,0.213-3.829,3.28-0.544c0.123-0.166,0.571,0.203,0.639,0.272c3.1-6.462,9.958-6.786,13.857-10.03
		c6.074-5.054,6.462-14.532,20.513-6.198c2.031,1.205,2.329,2.387,3.923,5.011c4.1,5.28,6.696-2.059,10.122,7.111
		c1.197,3.205-0.809,7.711-0.634,13.039c0.141,4.293,2.405,8.028,0.456,12.311c11.141,0.253,15.102,1.407,21.153,1.916
		c-0.322,3.604-1.465,7.151-1.644,10.212c5.982,5.241,0.549,13.346-3.561,19.876c-0.851,2.14-2.687,4.079-4.502,5.015
		c-4.799-2.838-5.171-0.653-9.657-1.668c-6.537-1.479-4.102-2.407-9.399-5.194c-4.618-2.429-13.14-8.199-21.804-10.031
		c-5.913-1.25-8.167,2.876-13.132-4.924c-1.988,0.708-4.659-2.724-6.198-4.559c-0.052-0.086-0.977-0.453-1.187-0.638
		c-1.676-6.578,2.673-20.382-2.467-28.248c-2.443,2.381-2.891,1.188-3.099,1.276c-0.123,0.031-0.154-0.029-0.094-0.181
		c-2.748,0.337-6.025,0.186-9.762,2.099C116.58,214.665,115.397,214.384,112.716,213.446z"/>
</g>
<g id="AC">
	<path fill="#B3B3B3" d="M18.752,176.079c27.999,12.808,75.475,18.293,95.97,39.188c-0.765,0.461-2.665,1.812-3.106,2.186
		c-0.065,0.143-0.193,0.304-0.363,0.457c-0.014,0.015-0.921,0.908-0.824,0.82c-0.082,0.055-0.278,0.305-0.272,0.093
		c-3.482,1.717-8.546,6.65-12.773,6.196c-2.132,2.333-5.629,5.874-10.402,6.931c-0.267-1.245-0.796-1.755-0.874-1.824
		c-0.26-0.262-0.545-0.322-0.731-0.275c-4.815-0.131-10.001-1.417-16.139-0.183c-0.503-0.024-0.782,0.059-0.903,0.363
		c-2.079,0.768-4.819,0.493-6.841-0.182c-0.218-7.409,1.24-15.669,0.275-19.959c0.357-0.343,0.687-0.669,1.463-1.826
		c-1.108,0.044-1.537,0.659-2.189,1.279c-0.076-0.079-0.069-0.071,0,0c-0.273,0.14-0.541,0.287-1.003,0.547
		c0.03-0.027-0.389,0.242-0.457,0.273c-0.46,0.699-1.404,1.578-2.548,2.371c-3.453,3.969-9.313,4.203-16.772,3.555
		c0.864-4.113-1.771-4.565-3.645-7.291c-0.27,0.115-0.931,0.149-1.095,0.091c-0.103-0.019-0.163-0.079-0.181-0.182
		c-0.009-0.002-0.195,0.031-0.272,0.091c-0.446-0.205-1.404-0.524-1.918-0.638c-0.777,0.061-4.81-0.432-6.469-0.275
		c7.127-5.279-8.25-22.816-10.023-28.618C21.388,180.345,17.941,177.91,18.752,176.079z"/>
</g>
<g id="AM">
	<path fill="#B3B3B3" d="M18.752,176.079c1.574-4.357,6.189-4.827,7.658-7.478c1.299-2.344-1.058-4.589,0.001-6.925
		c1.456-3.212,3.207-10.285,5.203-12.851c4.68-6.013,15.063-8.294,20.143-9.665c4.063-1.096,11.618-7.217,15.416-1.096
		c0.813-0.029,0.378-1.379,1.188-1.37c5.302,1.22,10.42-38.749,7.629-47.108c-1.671-5.003-9.448-9.984-6.746-19.687
		c3.668-1.589,9.093-2.153,12.405-1.092c0.332-5.542-4.528-7.446-9.76-6.198c-3.939-14.542,12.626-8.932,22.694-8.932
		c-2.347-3.652,1.108-2.797,4.287-3.009c4.912-0.327,2.812-5.017,6.835-1.824c3.065,2.433,3.744,8.267,3.192,12.669
		c3.736,0.352,12.059,3.812,14.857,4.92c0.281,0.111,2.132-2.558,3.102-2.366c3.098,0.613,3.629,0.081,2.644,4.47
		c0.083-0.022,0.146,0.008,0.186,0.091c6.406-6.507,8.124-6.255,15.416-12.124c0.071,0.094,0.469,0.146,0.547,0.091
		c0.121,0.181-0.837,1.751-0.547,1.823c0.347-0.288,0.556,0.234,0.729,0.363c7.071-13.869,21.961-15.053,24.984,4.651
		c1.187,7.736,5.755,22.679-0.227,23.696c0.081,0.209,0.019,0.331-0.185,0.366c3.923,3.395,8,8.883,13.862,12.029
		c-3.574-6.72-0.896-12.632,5.742-14.311c6.301-1.594,3.069,8.084,9.118,0.548c1.232-1.535,0.48-5.852,2.553-8.023
		c3.579-3.75,7.292-3.737,15.219-3.737c2.574,0,2.088,7.024,3.283,9.024c2.98,4.988,4.927,11.638,10.472,9.936
		c1.185,7.176,7.24,6.178,10.212,8.204c-0.069-0.047,16.409,9.459,14.318,4.831c0.009,0.02,1.351-0.321,1.277-0.275
		c-8.19,6.794-11.559,22.685-16.532,33.531c-3.833,8.359-12.21,20.981-13.545,28.992c-0.479,2.873,1.455,5.899,1.279,7.477
		c-0.797,7.16-1.861,17.52-1.096,22.612c-12.586,3.787-36.665,1.909-47.03,0.181c-1.24-0.207-5.198,0.015-6.201-1.276
		c-4.588-7.557-10.745-11.907-20.15-4.282c-2.048,1.66-1.83,4.992-4.922,7.02c-2.492,1.635-5.737,0.809-9.572,2.461
		c0.224-0.096-3.634,5.988-3.648,6.018c-0.068-0.07-0.515-0.438-0.638-0.272c-3.07-3.284-1.141-0.633-3.281,0.547
		c-3.912,0.979-8.382,0.26-13.222-0.731c-3.593,11.164-21.413-1.222-29.529-5.1C65.391,191.919,41.676,186.754,18.752,176.079z"/>
</g>
<g id="RR">
	<path fill="#B3B3B3" d="M147.895,29.346c-2.972-3.506-6.707-6.885-8.197-11.033c4.693,1.025,8.07,2.615,11.209,5.744
		c1.521-0.57,2.193-0.669,4.013-0.728c-0.523-0.031-0.707-0.791-0.363-1.276c1.48,0.633,1.428,1.883,2.554,2.461
		c0.065-0.089,1.074-2.061,0.638-1.641c2.62,2.006,6.267,4.265,9.484,3.922c-0.062-0.153-0.032-0.215,0.09-0.185
		c-0.561-4.787-0.375-2.697,2.461-4.555c1.682-2.53,5.235-1.944,8.392-1.185c2.85-2.123,6.902-3.649,8.122-6.014
		c0.212,0.09,0.302,0.06,0.271-0.093c4.5,0.842,10.899-3.622,7.662-9.113c6.865-1.753,13.771,2.167,7.66,8.934
		c0.117,0.008-0.013,0.654,0,0.638c5.813-0.806,6.535,4.613,8.759,7.836c-2.804,2.754-4.956,5.984-5.478,11.035
		c-2.234,6.612,2.647,14.224,3.463,17.69c1.458,2.657,6.251,4.456,8.03,7.385c1.921,3.163,2.281,2.83,2.281,12.763
		c0,2.048-14.25,2.826-17.135,5.74c-2.126,2.148-1.176,5.804-2.92,8.026c-5.699,7.26-2.252-1.935-8.565-0.485
		c-8.251,1.895-6.155,13.932-5.976,13.856c-0.148,0.103-0.179,0.255-0.092,0.456c-5.858-3.151-9.936-8.64-13.857-12.035
		c0.204-0.035,0.266-0.156,0.185-0.366c8.204-1.395-2.533-34.385-8.657-39.372C154.044,41.331,146.209,44.207,147.895,29.346z"/>
</g>
<g id="AP">
	<path fill="#B3B3B3" d="M272.939,43.926c4.49,3.096,12.159,3.811,15.133,0.822c1.532,0.361,5.553,2.079,6.207,2.643
		c7.22,1.162,8.588-4.344,12.037-10.029c0.433-0.714,9.4-21.004,11.31-21.054c6.003-0.156,10.229,27.629,11.487,31.626
		c-0.15-0.06-0.211-0.03-0.181,0.091c15.676-0.028,9.135,14.851,4.013,20.967c-5.57,6.652-18.985,24.962-22.422,25.797
		c-2.74-1.406-5.423-4.012-6.291-5.293c0.255-7.247-9.715-21.662-11.854-29.074c-2.75-2.095-14.05-2.584-17.881-7.656
		C273.803,51.847,272.999,45.436,272.939,43.926z"/>
</g>
<g id="TO">
	<path fill="#B3B3B3" d="M328.35,235.955c4.166-17.588,16.566-35.552,19.429-51.777c1.854-10.515,4.928-12.026,12.215-18.231
		c0.014-5.291,3.919-8.13,0.82-12.218c-1.035-0.215-3.936-1.928-5.744-2.096c14.479-9.14,24.711,14.805,13.492,25.16
		c0.023,0.02,0.035,0.51,0,0.547c1.595,1.212,1.918,1.278,3.628,1.824c-0.007,0.54-1.702,1.277-1.552,1.458
		c1.227,0.911,14.915,10.085,14.782,9.118c0.262,1.909-5.171,6.314-5.382,6.475c-0.013,0.222-0.128,0.348-0.366,0.363
		c0.467,1.626-0.14,3.795-1.55,5.378c0.868,1.939,9.281,21.194,17.591,16.222c0.033,0.205,0.155,0.267,0.366,0.185
		c-3.335,4.823-19.837,18.33-5.193,20.152c0,0.091,0,0.182,0,0.273c-3.68,1.437-1.875,1.4-3.924,2.738
		c0.126,0.121,0.126,0.242,0,0.363c0.417,0.915,2.195,0.032,2.738,0.456c-4.245,3.135-3.183,6.366,0.276,8.116
		c-0.125,0.121-0.125,0.242,0,0.363c-0.976,2.228-1.03,3.137-2.007,6.112c0.477,0.228,1.908-0.911,2.555-0.456
		c-3.197,1.79-2.549,0.317-3.557-1.004c-6.042,2.61-12.369,7.914-16.692,3.554c-0.061,0.121-0.121,0.121-0.182,0
		c0.155,1.326-0.666,3.049-0.643,5c-1.113-1.427-2.291-2.205-3.188-2.279c-1.577-0.417-1.724-1.162-3.105,0.091
		c-0.082-0.125-0.112-0.125-0.091,0c-0.06-0.121-0.12-0.121-0.181,0c0.662-3.074-0.451-1.187-1.461-1.552
		c-0.078,0.104-0.386,0.479-0.365,0.457h-0.092c-0.235,0.061-1.355,0.554-2.011,0.729c-0.175-0.138-0.229-1.616-0.271-2.095
		c-0.029,0.064-0.277,0.37-0.367,0c-0.271,0.896-0.479,1.724-0.82,2.553c-0.061,0-0.121,0-0.182,0
		c-0.219-3.975-1.514-4.325-3.835-7.113c-0.138-0.016-1.13,1.991-1.457,2.189c-0.819-0.515-1.578-2.323-1.915-2.371
		c-0.877,2.466-2.854,3.789-3.374,6.745c-4.1-2.592-9.188-5.025-12.033-5.925c-0.421-0.455-0.562-1.599-0.366-2.187
		c0.781-1.437,1.146-1.991,2.007-4.103c-0.155,0.14-0.546,0.676-0.638,0.272c-0.184,0.215,0.005-0.141,0.093,0.182
		c-2.343,2.509-3.109,2.545-4.38,6.02C327.893,253.299,329.657,242.396,328.35,235.955z"/>
</g>
<g id="MT">
	<path fill="#B3B3B3" d="M182.164,206.063c0.063-1.695,2.398-3.516,0.636-6.655c13.826,0,30.968,2.75,43.748-1.094
		c-0.619-4.125-0.972-12.959,2.554-18.966c5.733,9.173,6.546,15.795,11.942,21.515c16.54,17.532,67.283,11.063,94.244,12.947
		c-3.691,8.796-5.971,15.222-6.204,24.16c-0.146,5.557,2.535,16.083,2.37,17.689c-1.678,16.315-10.858,31.591-19.419,41.272
		c-5.524,6.247-9.877,11.501-13.411,13.865c-0.648,0.283-1.346,1.577-1.46,3.01c0.168-0.015,0.023,0.142-0.093,0.277v-0.09
		c-0.873,0.92-1.835,3.165-1.827,4.102c0.081,0.118,0.132,0.236,0,0.186c-0.206,0.318-0.292,0.666-0.271,1.186
		c-0.045,0.024-0.17,0.341-0.183,0.641v-0.092c-0.086,0.15-0.157,0.313,0,0.363c0.898,1.85,0.802,4.278,2.279,7.029
		c-5.404-0.233-8.669-0.405-11.832-1.738c2.515-3.245,1.738-5.031,3.651-9.207c-0.178-0.02-0.239-0.111-0.185-0.275
		c-2.083,1.477-4.725,3.861-5.654,5.291c-0.657,0.095-2.238,0.32-3.197,0.457c-2.212-2.618-5.776-2.186-9.02-0.09
		c0.023,0-0.223-0.065-0.272-0.092c-1.179,0.188-2.166-0.054-2.649-0.637c-0.147-0.226-0.365-0.378-0.639-0.369
		c-0.159-0.192-0.447-0.281-0.639-0.273c-4.531-2.673-8.424-5.722-12.483-4.133c-6.458,1.122-11.195,8.954-18.049,7.025
		c-8.646-2.433-13.571-9.983-9.485-20.604c-0.086,0.018-0.957,0.277-0.913-0.091c-3.378,0.805-10.342,1.283-14.58,0.273
		c-15.313-3.648-3.74-6.458-14.675-16.222c1.21-0.45,3.021-0.053,4.282-0.091c-0.663-8.874-3.609-9.395-2.004-15.231
		c-0.409-1.94-1.36-3.071-3.441-3.738c-0.625-0.183-0.904-0.508-0.548-1.004c1.802-0.944,3.623-2.883,4.47-5.015
		c4.107-6.53,9.543-14.634,3.561-19.876c0.177-3.047,1.318-6.609,1.644-10.187c-6.055-0.509-10.009-1.663-21.154-1.916
		C185.77,224.146,183.96,209.233,182.164,206.063z"/>
</g>
<g id="GO">
	<path fill="#B3B3B3" d="M294.813,319.896c0.049-0.246,0.151-0.456,0.182-0.459c-0.019-0.521,0.067-0.87,0.272-1.186
		c0.132,0.051,0.081-0.067,0-0.186c-0.009-0.936,0.953-3.179,1.827-4.102v0.09c0.115-0.135,0.263-0.294,0.093-0.275
		c0.113-1.433,0.811-2.728,1.46-3.012c4.441-2.978,9.047-11.868,16.862-18.973c10.342-9.401,10.646-27.101,17.038-39.169
		c0.733-1.385,1.891-2.161,3.285-3.008c-0.057-0.209-0.327-0.042-0.093-0.182c0.099,0.437,0.429-0.178,0.638-0.272
		c-0.86,2.111-1.227,2.666-2.007,4.103c-0.195,0.588-0.055,1.732,0.366,2.187c2.844,0.898,7.933,3.332,12.033,5.925
		c0.52-2.957,2.497-4.279,3.374-6.745c0.337,0.048,1.096,1.856,1.915,2.371c0.329-0.2,1.319-2.205,1.457-2.189
		c2.322,2.789,3.616,3.138,3.835,7.113c0.061,0,0.121,0,0.182,0c0.343-0.83,0.549-1.657,0.82-2.553c0.09,0.369,0.338,0.065,0.367,0
		c0.043,0.479,0.097,1.957,0.271,2.095c0.658-0.176,1.774-0.668,2.011-0.729h0.092c-0.021,0.022,0.287-0.353,0.365-0.457
		c1.01,0.364,2.124-1.521,1.46,1.552c0.062-0.121,0.122-0.121,0.182,0c-0.021-0.125,0.009-0.125,0.091,0
		c1.383-1.253,1.528-0.507,3.104-0.091c0.898,0.078,2.072,0.848,3.189,2.279c-0.041-1.935,0.771-3.664,0.605-5.017
		c0.062,0.122,0.122,0.122,0.183,0c4.324,4.36,10.649-0.943,16.692-3.554c0.921,0.26,0.052,2.966,3.557,1.004
		c-2.886,3.078-1.399,2.907-2.283,5.926c1.061-0.247,2.097-1.186,3.191-1.004c-3.752,4.313-2.641,6.661-3.008,11.396
		c4.213,1.892,4.706,3.853,3.647,6.479c0.188,0.489,0.134,1.053-0.183,1.275c-0.823,4.842-3.056,4.664-6.205,0.637
		c-0.16,0.129-0.312,0.129-0.453,0c0.019,1.473-0.29,2.859,0.001,4.836c-12.392-1.27,1.559,10.841-8.575,12.123
		c-0.016,0.018-0.286,0.389-0.272,0.365c-0.133,0.03-0.133,0.062,0,0.092c-0.105,0.104,0.015-0.015-0.091,0.09
		c-0.178,0.297-0.787,0.58-1.462,0.549c-0.033,0.011-0.165,0.092-0.272,0.182v-0.09c-0.031,0.09-0.146,0.401-0.091,0.271
		c-0.809-0.537-1.1-1.297-1.006-2.099c0.194-0.533,0.479-1.166,0.821-1.825v0.092c-0.747-7.644-14.103-3.697-12.849,4.099
		c4.295-0.279,8.776,0.475,13.034-0.093c-1.036,2.173-0.347,7.128-0.366,7.666c0.044,0.041,0.739,0.673,1.006,0.912
		c0.181,0.274,0.374,0.835,0.454,1.369c0.682,1.658,0.997,2.887,0.916,3.744c-0.226,0.145-0.656,0.486-0.914,0.729
		c-0.167-0.021-0.251-0.032-0.273-0.092c-0.844,1.272-2.489,2.835-3.558,3.377c1.386,1.612,3.273,6.341,2.826,9.77
		c-7.052,6.383-6.862,3.174-18.062,4.145c-8.596,0.745-25.051,3.494-29.248,15.955c-3.663-2.383-8.279-4.757-12.305-5.473
		c-1.329-0.809-2.994-1.523-4.014-1.736c-0.168-0.095-0.711-0.412-0.64-0.367c-0.922-1.046-2.171-1.629-3.654-1.736
		c-3.792-0.771-9.448-1.771-5.377-6.385c-0.083-0.039-0.113-0.1-0.091-0.182c-6.035-0.5-5.16-6.736-6.379-11.129
		c-0.157-0.05-0.086-0.213,0-0.363v0.092C294.739,319.941,294.746,319.888,294.813,319.896z"/>
</g>
<g id="MS">
	<path fill="#B3B3B3" d="M230.466,348.238c4.78-6.023,5.24-12.084,7.746-18.225c-1.907-2.682-2.856-6.872-4.468-8.844
		c4.929,7.866,10.926-1.995,17.149-4.014c0.445-0.145,2.459-0.68,3.285-0.822c4.047-1.586,7.956,1.435,12.481,4.104
		c0.191-0.008,0.479,0.081,0.638,0.273c0.274-0.009,0.493,0.144,0.64,0.369c0.483,0.582,1.469,0.825,2.648,0.637
		c0.049,0.026,0.297,0.092,0.273,0.092c3.245-2.097,6.812-2.525,9.03,0.09c0.96-0.137,2.54-0.362,3.198-0.457
		c0.929-1.43,3.569-3.814,5.653-5.291c-0.055,0.164,0.007,0.256,0.185,0.275c-1.914,4.176-1.137,5.961-3.651,9.207
		c3.186,1.333,6.442,1.504,11.86,1.738c1.857,2.161-0.33,1.718,4.1,4.1c-0.022,0.083,0.008,0.145,0.091,0.184
		c-4.069,4.612,1.588,5.613,5.377,6.385c1.486,0.105,2.735,0.688,3.654,1.736c-0.07-0.045,0.47,0.271,0.639,0.365
		c1.021,0.213,2.685,0.927,4.015,1.736c18.824,3.345,5.267,15.945-1.906,28.535c-5.144,9.028-10.267,14.347-19.595,22.422
		c-4.387,3.798-6.065,11.653-9.937,14.68c-5.34,4.174-3.47-0.479-8.297,0.176c-15.93,2.163-6.371-4.556-12.367-15.863
		c-2.084-3.931-1.946-5.437-6.379-5.656c-4.821-4.438-7.053-0.34-11.043-0.455c-1.674-0.148-2.564-0.286-4.019-0.639
		c-1.035,0.429-2.192,0.345-3.286-0.182c-2.685-0.106-4.259-1.457-7.174-1.461c0.79-5.442,1.288-15.767,1.727-18.598
		c-2.822-3.572-6.279-8.344,0.094-10.758C227.739,352.078,231.616,349.916,230.466,348.238z"/>
</g>
<g id="MG">
	<path fill="#B3B3B3" d="M324.43,351.521c3.738-12.993,20.307-19.258,30.182-19.877c11.426-0.716,12.955,2.399,19.344-3.65
		c0.389-0.368,0.571-0.759,0.639-0.82c0.447-3.426-1.44-8.155-2.826-9.768c1.066-0.542,2.714-2.105,3.558-3.377
		c0.022,0.06,0.106,0.071,0.273,0.092c0.258-0.242,0.688-0.584,0.914-0.729c0.081-0.859-0.234-2.087-0.916-3.746
		c-0.08-0.532-0.273-1.094-0.454-1.369c-0.269-0.24-0.963-0.871-1.006-0.912c-0.92-1.654-0.679-5.656,0.456-8.12v0.09
		c0.107-0.09,0.239-0.171,0.272-0.182c0.673,0.031,1.283-0.251,1.462-0.548c0.105-0.104-0.015,0.015,0.091-0.09
		c-0.133-0.03-0.133-0.062,0-0.092c-0.014,0.022,0.256-0.349,0.272-0.367c10.137-1.277-3.82-13.391,8.575-12.121
		c-0.288-1.96,0.013-3.336-0.001-4.777c4.424,2.414,7.859,2.626,5.194,6.752c0.021,0.005,0.438,0.671,0.366,0.82
		c0.078-0.067,0.267-0.009,0.182,0.182c1.473-1.709,2.964-1.039,4.654-2.008c3.43-2.798,7.116-4.763,11.495-7.297
		c0.743-1.084,2.229-2.307,4.02-3.288c3.135-1.466,5.482-1.813,7.936-1.186c0.065,0.013,0.298,0.206,0.457,0.457
		c0.174-0.039,0.605-0.088,0.824-0.09c1.432,0.625,1.057,2.697,0.094,4.739c5.109,3.783,10.547-2.21,15.69,3.376
		c0.317,0.197,0.579,0.354,0.914,0.547c10.408,7.26,23.713,9.35,32.828,12.945c0.533,0.211,1.645,0.835,1.825,0.913
		c0.155,0.831,0.864,1.195,2.097,1.097c0.285,5.436-5.556,6.911-4.469,11.672c-0.213,0.064-0.495,0.521-0.457,0.822
		c-9.893,2.553,0.858,10.566,0.729,14.957c-4.151-0.797-6.141-0.059-8.847-0.184c-0.032,0.176-0.258,0.26-0.39,0.275
		c0.025,0.283,1.604,1.878,1.822,2.279c-4.673-0.258-2.895,0.79-5.564,3.918c2.596,2.076,1.344,2.631,3.558,5.199
		c-1.434-0.039-3.042,0.038-4.379,0.094c0.125,0.122,0.125,0.244,0,0.365c0.128-0.021,0.128,0.009,0,0.09
		c3.56,1.843,4.14,4.199,3.836,7.668c-0.558,6.372-8.009,7.141-10.849,11.404c-2.987,4.485,1.194,7.783-5.202,10.256
		c0.083,3.139-2.416,7.402-1.551,9.857c-0.005,0.002-0.015,0.413,0,0.457c-3.781,1.701-8.567,3.776-11.666,5.473
		c-5.757-2.649-15.076,1.451-22.141,3.832c-5.561,1.874-9.888,4.938-11.95,2.518c-0.158,0.208-0.34,0.239-0.547,0.092
		c-0.016,0.029-0.228,0.393-0.272,0.365c-0.416,0.95,0.098,1.316,0.182,1.641c-1.342,2.709-7.985,3.486-10.111-0.361
		c-0.007-0.108,0.065-0.115,0-0.275c-0.351-0.993-3.104-4.188-1.631-7.576c-0.232-0.225-1.655-0.514-1.642-0.82
		c4.575-9.569-1.335-7.03-5.569-13.848c-1.988-3.202,0.708-9.475-1.444-12.029c-4.659-5.529-8.647-0.88-13.402-2.371
		c-2.38,0.304-6.8,2.271-8.656,5.654c-3.514-1.942-4.458-2.217-4.831-6.473c-7.95-0.505-17.293-4.544-23.515,1.555
		C324.909,354.308,324.558,352.884,324.43,351.521z"/>
</g>
<g id="PR">
	<path fill="#B3B3B3" d="M276.493,429.806c6.179-11.295,3.324-25.256,13.399-34.541c6.918-6.375,16.755-5.336,22.975-4.742
		c10.286,0.982,17.184,5.143,25.621,4.014c6.414,5.879,3.898,11.195,6.633,15.518c4.855,3.613,0.109,9.619,6.206,8.67
		c4.27-0.388,7.47,0.489,6.755,6.389c2.354-1.494,1.611-0.458,2.645-0.455c0.707-0.059,0.625-1.006,1.096-1.277
		c0.732,0.716,3.18,3.622,3.014,3.375c-0.121,0.06-0.121,0.121,0,0.184c-5.258,5.057-7.547,12.976-14.771,10.666
		c-0.604-0.018-1.401,0.344-1.918,0.916c-0.025,0.018-0.25,0.229-0.363,0.365c-0.03,0.077-0.541,0.434-0.914,0.549
		c-0.163,0.195-0.506,0.395-0.729,0.453c-0.5-0.022-0.948,0.241-1.005,0.549c-0.382,0.269-0.483,0.299-0.835,0.275
		c-0.164,0.077-0.513-0.014-0.823-0.275c-1.592-1.559-3.734-2.393-6.204-2.186c-1.311,0.507-1.573-0.677-3.467,1.096
		c0.089,0.089-1.269-1.138-1.644-1.277c-0.257-0.165-0.292-0.127-0.272-0.09c-4.592,3.599-10.048,2.904-12.562,9.492
		c-8.081-3.295-24.68-2.898-30.738-7.826c-1.52-1.236-1.915-3.876-1.89-4.107c0.383-2.412-0.633-3.723-3.377-3.287
		c-0.934-0.119,0.201-1.547-0.092-1.73c-0.009,0.009-2.187,1.652-0.913,1.186c-1.479,0.796-1.813-0.152-3.462,1.549
		C276.946,432.202,277.356,431.259,276.493,429.806z"/>
</g>
<g id="RS">
	<path fill="#B3B3B3" d="M239.946,492.511c5.737-6.346,16.166-21.542,21.873-21.422c0.073-2.06-0.614-0.835-1.094-2.369
		c9.498-6.554,16.485-13.155,26.267-14.955c3.176-0.585,5.423-0.199,6.756,0.547c1.922-0.915,2.448-1.307,4.012-1.826
		c0.216,0.438-0.068,1.428,0.274,1.732c0.096,0.008,0.297,0.117,0.367,0.184c5.853,0.144,8.605,0.945,13.775,2.184
		c-0.084-0.118,12.767,10.504,17.786,13.68c3.667,2.32,7.261,1.465,10.401,1.098c0.259,0.105,0.25,0.953,1.188,0.184
		c0.352,0.751,0.46,1.237,1.005,2.189c-1.659,0.218-1.652,0.681-2.373,1.186h0.091c-0.75,0.425-0.378,0.181-1.187,0.824
		c-0.268,0.692-0.23,1.313,0.271,1.551c-0.369,0.256-0.609,0.518-0.182,0.73c0.142,0.932-0.018,1.47-0.641,2.1
		c0.835-0.536,0.532,0.146,0.365,0.547c-0.548,0.555-1.084,0.873-1.553,0.82c-0.347-0.076-0.068-0.197,0.091-0.271
		c-0.449,0.113-0.445,0.32-0.182,0.549c-0.114,0.115-0.191,0.257,0,0.27c-0.421-0.192-0.922-0.318-0.726,0.549
		c-0.456,0.321,0.943,1.107,1.368,1.277c-0.006-0.287-0.931-0.982-1.096-1.277c3.031-1.016,3.059,0.291,5.111,0.73
		c-8.46,12.753-15.791,24.157-27.891,36.004c-5.077,4.971-11.579,23.423-19.594,24.516c-6.158,0.84-3.96-6.464,0.362-10.301
		c-0.872-0.02-1.054-0.201-0.547-0.547c-0.449,0.462,2.361-1.889,2.916-2.188c-7.59-2.717-7.46-8.793-13.017-11.676h0.091
		c-1.797,0.437-4.466-1.825-5.745-4.105v0.09c-2.839-1.479-5.53-3.202-7.383-4.746c-6.628-0.144-5.749-8.815-13.503-2.557
		c-0.229-7.03-10.835-16.359-15.603-11.951c-2.137,0.887-3.558,1.646-6.383-0.365C237.426,494.814,238.419,493.752,239.946,492.511z
		"/>
</g>
<g id="BA">
	<path fill="#B3B3B3" d="M383.853,234.132c4.063-5.56,9.717-10.679,11.851-15.951c0.307,0.187,1.625-0.447,1.733-0.637
		c2.671,12.136,6.786,9.542,14.043,7.206c9.79-3.152,6.772-6.952,10.299-11.95c6.835-9.688,6.088-2.572,14.134-2.735
		c5.832-0.118,12.308-8.639,16.596-9.757c5.03-1.313,13.229,0.349,9.666,8.205c14.718-2.999,12.184-16.901,28.627-6.463
		c0.081-0.075,0.173-0.105,0.275-0.091c0.989-0.886,0.062-1.495,1.549-2.096c0.204,0.126,0.387,0.277,0.547,0.454
		c0.806,2.288-1.029,1.061,2.006,1.733c3.001,6.75,7.956,14.291,6.656,21.514c-8.885,2.332-2.436,14.412,2.74,13.772
		c1.102-0.136,1.96-0.474,3.742-1.275c-3.046,6.339-10.614,22.339-16.41,20.414c-10.615,7.438-4.684,34.343-6.744,48.952
		c-1.021,7.237,0.313,19.347-6.931,22.52c-0.039,0.23-0.739,2.536-1.184,3.734c-7.578-3.348-17.554-17.651-8.206-20.057
		c-0.038-0.3,0.245-0.761,0.457-0.824c-1.086-4.759,4.754-6.237,4.469-11.67c-1.233,0.098-1.942-0.268-2.097-1.098
		c-1.611-0.693-6.568-2.309-8.943-3.099c-2.115-0.703-4.875,1.91-7.659,0.636c-0.815-0.373-7.995-7.283-9.205-8.021
		c-1.144-0.698-2.894-0.35-3.834-0.727c-1.474-0.59-3.862-1.846-5.012-2.648c-0.336-0.192-0.598-0.349-0.914-0.545
		c-5.142-5.588-10.59,0.407-15.691-3.377c0.962-2.037,1.337-4.111-0.093-4.739c-0.219,0.002-0.65,0.051-0.824,0.09
		c-0.159-0.251-0.392-0.443-0.457-0.456c-2.452-0.626-4.803-0.279-7.936,1.186c-1.792,0.982-3.276,2.204-4.02,3.289
		c-4.276,2.474-8.328,4.31-11.474,7.297c-1.69,0.969-3.184,0.301-4.655,2.007c0.067-0.219-0.104-0.246-0.181-0.181
		c0.063-0.155-0.338-0.814-0.366-0.82c2.018-2.767,0.991-4.426,1.463-7.389c0.317-0.223,0.371-0.786,0.184-1.275
		c1.058-2.625,0.564-4.586-3.647-6.478c0.366-4.738-0.744-7.084,3.007-11.4c-1.095-0.182-2.13,0.757-3.19,1.004
		c0.548-3.284-0.584-2.867,2.282-5.926c-0.219-0.154-2.508,0.153-2.555,0.456c1.03-3.14,0.805-3.72,2.007-6.112
		c-0.125-0.121-0.125-0.242,0-0.363c-3.457-1.749-4.52-4.981-0.275-8.116c-0.545-0.425-2.321,0.459-2.738-0.456
		c0.125-0.121,0.125-0.242,0-0.363c2.052-1.336,0.232-1.294,3.923-2.724c0-0.091,0-0.182,0-0.273
		C386.979,238.254,386.343,235.89,383.853,234.132z"/>
</g>
<g id="PI">
	<path fill="#B3B3B3" d="M392.694,219.643c3.727-12.714-1.629-17.864,4.923-29.536c3.877-6.906,15.399-16.659,24.266-19.511
		c11.061-3.558,7.769,1.999,9.936-8.386c1.478-7.079,1.581-14.768,2.46-22.335c1.425-12.271,13.112-13.841,13.957-24.314
		c9.455,1.732,7.505,12.449,7.476,17.961c4.355,4.661,4.099,24.287,7.112,36.288c0.117,0.467,4.519,1.927,4.83,2.004
		c-5.562,16.146-4.206,21.775-18.738,31.999c-6.837,4.81-12.499,3.696-16.774,4.105c-2.578,0.247-5.427-2.489-8.118-0.64
		c-6.347,4.36,1.045,5.563-1.091,9.666c-5.27,10.124-21.949,16.902-25.529,0.64C395.631,219.111,394.596,218.559,392.694,219.643z"
		/>
</g>
<g id="CE">
	<path fill="#B3B3B3" d="M453.575,124.038c0.409-3.584,3.318-3.327,1.186-5.925c5.806-0.835,14.123-1.923,17.771-1.097
		c14.119,6.163,22.146,19.886,35.557,25.522c-2.993,3.455-16.356,21.439-15.591,23.798c-1.177,1.214-1.814,2.624-1.922,3.741
		c-3.002,5.986,4.523,12.398-5.845,16.302c-3.646-7.104-9.931-7.344-19.585-6.382c1.706-2.963,1.024-5.81,2.463-8.205
		c-10.637-2.632-9.784-31.344-10.21-36.644c-0.235-2.931-0.665-0.5-1.732-1.642C455.687,129.539,455.019,126.912,453.575,124.038z"
		/>
</g>
<g id="RN">
	<path fill="#B3B3B3" d="M491.672,164.594c4.725-3.577,5.441-9.757,10.672-14.407c4.486-3.987,20.178-6.012,28.707-1.732
		c2.334,1.171,4.008,2.629,5.105,5.016c1.485,6.133,5.26,12.183,0.825,14.86c-2.339,1.412-13.771-2.574-14.873-3.739
		c-2.917,3.045-2.565,0.908-1.729,4.83c-0.179,0.503-2.128,3.248-3.736,4.834c-2.711-3.667-5.024-3.353-10.3-3.74
		c1.457-2.848,2.274-6.865,4.193-9.207c-3.118,0.376-6.512,2.067-7.84,3.374C499.408,168.487,494.046,167.662,491.672,164.594z"/>
</g>
<g id="AL">
	<path fill="#B3B3B3" d="M496.226,206.791c2.081-2.705,4.494-3.733,6.113-6.474c0.093,0.051,0.223-0.018,0.272-0.091
		c2.957,1.872,7.843,4.565,10.938,7.296c6.945-1.521,8.634-4.997,15.693-7.296c2.03-0.592,4.8-0.235,8.392,0.638
		c-3.618,6.774-13.475,20.458-18.239,21.064C513.766,216.477,502.483,212.367,496.226,206.791z"/>
</g>
<g id="SE">
	<path fill="#B3B3B3" d="M496.226,227.023c2.375-0.767,3.926-1.638,5.565-3.465c1.013-5.626-2.915-9.158-2.461-14.22
		c7.733,3.516,15.168,7.849,20.056,12.581c1.659,3.312-13.351,15.66-17.414,14.857c-2.258-0.446-2.699-3.646-4.017-6.385
		C497.631,229.714,496.726,227.952,496.226,227.023z"/>
</g>
<g id="DF">
	<path fill="#B3B3B3" d="M361.341,296.748c0.63-5.8,12.326-7.311,12.943-0.998v-0.092c-0.343,0.659-0.627,1.292-0.821,1.825
		c0.411,0.917,0.097,1.526,1.006,2.283c-4.11,0.547-8.852,0.253-13.033,0.092C361.842,298.19,361.532,298.277,361.341,296.748z"/>
</g>
<g id="PE">
	<path fill="#B3B3B3" d="M454.304,198.134c7.079-4.572,5.84-6.086,10.755-12.308c2.031-2.571-4.634-2.104,1.824-5.923
		c0.61-0.361,8.522-1.486,10.119-1.095c4.088,1.001,4.65,4.907,7.014,5.657c0.83,0.264,0.537,1.542,0.729,1.915
		c3.873-3.587,6.073-1.481,10.404-2.005c3.198-0.386,5.953-2.474,10.576-3.65c3.7-0.941,4.134-3.139,7.294,0.456
		c-2.896,2.915-2.58,4.309-4.829,6.474c0.01,0.128-0.021,0.25-0.091,0.366c0.153-0.062,0.215-0.031,0.185,0.091
		c6.118,8.325,15.894-5.305,24.618-6.384c12.708-1.572,9.193,7.624,4.745,19.325c-4.126-1.268-5.752-0.411-8.393-0.823
		c-7.064,2.3-8.748,5.776-15.693,7.293c-3.098-2.731-7.983-5.426-10.938-7.296c-0.045,0.076-0.184,0.14-0.272,0.091
		c-1.553,2.827-4.02,3.753-6.113,6.475c-0.631-2.322-0.776-3.066-1.093-4.739c-2.907-0.644-1.396,0.709-2.006-1.733
		c-0.16-0.177-0.343-0.328-0.547-0.454c-1.487,0.601-0.559,1.209-1.548,2.096c-0.103-0.014-0.194,0.016-0.276,0.091
		c-16.369-10.531-13.989,3.486-28.627,6.473C464.457,203.423,459.611,198.286,454.304,198.134z"/>
</g>
<g id="MA">
	<path fill="#B3B3B3" d="M355.054,151.654c11.572-9.618,19.172-14.47,22.979-23.701c0.606-1.301,0.975-2.162,1.278-3.01
		c0.004-0.143,0.188-0.626,0.271-0.73c2.585-1.687,3.385-4.985,4.749-7.294c-0.216-0.075-0.246-0.105-0.091-0.091
		c-0.207-3.44,4.569-8.348,3.559-14.304c2.516-3.618,2.635-7.715,4.012-9.844c0.402-0.3,0.939-0.684,0.363,0.001
		c0.071,0.24,0.155,0.55,0.456,0.189c-0.308,0.948-0.39,1.669,0.729,0.638c0.193-0.614,0.394-1.046,0.637-1.37
		c0.062,0,0.124,0,0.186,0c-0.005-0.035-0.04,0.78,0,0.641c-1.415,2.662,0.046-0.33-1.004,2.004
		c0.638,0.128,1.082-0.579,0.729,0.638c1.149-1.358,0.388-0.259,0.824-1.733c-0.005,0.035,0.087,0.289,0.182,0.091
		c-0.163,0.572-0.297,0.84-0.366,1.346c0.258-0.416,0.25-0.438,0.457,0.02c0.044,0.308-0.451,0.081-0.488,0.185
		c0.067-0.138,0.45-0.033,0.457,0c0.125-0.082,0.125-0.112,0-0.091c0.333-1.769,1.125-1.591,1.186-1.642
		c-0.236,0.385-0.552,0.896-0.729,1.185c0.228,1.035,0.242,1.237,0.912,1.458c-0.185,0.046-0.335,0.137-0.453,0.275
		c-0.046,0.136-0.208,0.147-0.366,0.272c0.187-0.409-0.289-0.054-0.183-0.09c0.95-1.738,1.18-0.965,1.64-3.465
		c0.063-0.06,0.124-0.12,0.185-0.182c-0.04,0.655-0.164,3.052-0.185,2.736c0.101,0.42-0.004,0.705-0.363,0.729
		c-0.364-0.228-0.68,0.056-0.914,0.729c0.752-0.448,1.309-1.054,1.824-2.005c0.385-0.101,0.043,0.191-0.272,0.454
		c0.02,0.344,0.083,0.489,0.457,0.641c0.449-1.243,0.513-1.473-0.002-0.185c0.297-0.147,0.473-0.608,0.64-0.271
		c-0.06,0.028-0.459,0.189-0.457,0.182c0.068-0.029,0.31-0.386,0.457,0.274c0.354-0.025,1.116,0.018,1.097-0.001
		c-0.309,1.254-0.479,2.018-0.549,2.46c0.082,0.039,0.112,0.1,0.091,0.182c0.577-1.241,0.938-1.637,1.097-1.094
		c0.175-0.513,0.386-0.817,0.546-0.82c-0.186-0.453-0.044-0.701,0.365-0.728l-0.09,0.09c0.127-0.996,0.288-0.433,0.457,0.548
		c0.06-0.344-0.618,1.162-0.913,1.639c0.128-0.116-0.555,0.426,0.64,0c0.092,0.27-0.345,1.628-1.096,2.645
		c0.442-0.465,0.604-0.533,0.275,0.091c-0.067,0.077,3.132-2.832,3.378-3.007c0.071,1.229,0.205,0.301,0.365-1.277
		c-0.357-0.131,0.211,1.08,0.275,1.368c0.045-0.28,0.183-1.021-0.093-0.182c0.291-1.632,0.641-0.045,0.715,0.181
		c0.991-0.196,1.341-0.214,1.55,0.09c0.042-0.25,0.533-0.864,0.912-1.094c-0.083-0.208,0.162-0.191,0.092-0.182h0.271h-0.091
		c0.38,0.562,0.129,0.885-0.73,0.913c0.198,0.017,0.392,0.086,0.548,0.182c-0.078,1.298-0.236,1.825,0.637,2.28
		c-0.082,0.288,0.409-1.376,0.181-1.095c0.211,0.042,0.241,0.013,0.091-0.09c0.009,0.056,0.121,0.072,0.185,0
		c-0.079,1.03,0.242,0.403,0.912-0.276c-0.014,0.413-0.196,0.788-0.453,0.913c0.232-0.1,0.474-0.348,0.548-0.548
		c0.511,0.334,0.876,0.843-0.823,0.91c0.15,0.439-0.139,0.558-0.548,0.547c0.275,0.037,0.14,0.292,0.091,0.457
		c0.305,0.032,0.623,0.063,0.731,0.456c-2.108,1.436-0.366,0.959,0.452,0.73c0.38-0.557,0.504-0.369,0.731-0.181
		c0.525-0.433,0.376-1.805,0.182,0.547c0.251-0.143,0.165-1.039,0.729-0.731c0.508,1.282-0.121,0.459-0.364,1.733
		c1.381,0.234,2.118,1.853,2.557,4.379c-0.14,1.19,1.301,1.479-0.001,2.643c1.796,1.623,2.514,0.641,4.104,0.184
		c0.338-0.085,1.49-0.489,0.729,0.091c-0.038,0.02-1.31,0.461-0.092,0.454c0.368-0.183,1.207-0.049,0.819,1.642
		c4.605-7.52,9.566-2.299,16.77-0.456c-0.082,0.128-0.112,0.128-0.091,0c0.064,0.146,0.724,0.823,0.913,0.913
		c0.031,0.053-0.136,0.266,0,0.457c0.345-0.016-0.541-1.375-0.457-1.276c-0.111,0.126-0.202,0.126-0.272,0
		c4.882,2.177,7.734,2.372,12.395,2.275c0.021,0.129-0.009,0.129-0.091,0c-0.026,9.256-6.536,7.257-10.485,12.038
		c-6.979,8.449-1.985,12.443-2.648,21.604c-0.313,4.318-3.056,6.909-3.555,11.396c-0.356,3.205,4.974,4.098,2.461,8.295
		c-2.646,4.422-14.397,3.371-17.322,4.561c-11.987,4.878-18.658,12.31-21.332,23.581c-1.766,7.445,0.269,13.558-2.465,22.888
		c-0.225-0.027-0.527-0.373-0.728,0c-6.554-1.677-12.822-15.375-13.855-17.683c1.409-1.581,2.017-3.75,1.551-5.378
		c0.237-0.016,0.353-0.142,0.365-0.363c10.141-7.753-0.449-7.505-4.838-11.125c-1.59-1.311-1.721-2.359-4.563-4.469
		c-0.152-0.185,1.545-0.915,1.552-1.458c-1.707-0.551-2.024-0.608-3.616-1.824c0.036-0.037,0.023-0.526,0-0.547
		C379.748,166.466,369.532,142.479,355.054,151.654z M394.425,93.688v-0.09V93.688z M401.444,97.334
		c-0.039-0.302-0.176-0.237-0.275-0.182C401.353,97.204,401.347,97.194,401.444,97.334z M404.723,96.333
		C404.211,95.896,405.81,97.258,404.723,96.333L404.723,96.333z M404.817,96.24C404.737,96.284,404.612,96.351,404.817,96.24
		L404.817,96.24z M396.704,95.239C396.769,95.169,396.783,95.156,396.704,95.239L396.704,95.239z M396.795,95.239
		C396.523,96.007,396.656,95.631,396.795,95.239L396.795,95.239z M408.824,100.888C409.031,101.169,409,101.127,408.824,100.888
		L408.824,100.888z M408.734,99.704C408.662,99.631,408.66,99.629,408.734,99.704L408.734,99.704z M394.425,95.146
		c-0.177,0.409-0.04,0.71,0.276,1.095C394.431,95.862,394.304,95.485,394.425,95.146z M412.744,107.178v-0.091
		c0.03,0.134,0.062,0.134,0.092,0C412.866,107.178,412.836,107.209,412.744,107.178z M407.003,96.24
		c-0.357-0.235-0.497-0.144-0.55-0.091c0.536,0.272,0.261,0.4-0.271,0.457c-0.334,0.753-0.704,0.547-1.005-0.091
		c0.266-0.327,0.757-0.703,0.822-0.729C406.451,95.504,406.986,95.585,407.003,96.24z M408.368,99.341
		C408.573,99.23,408.448,99.297,408.368,99.341L408.368,99.341z M393.878,95.055C393.976,94.958,393.981,94.954,393.878,95.055
		L393.878,95.055z M410.556,102.348C410.756,102.176,410.757,102.175,410.556,102.348L410.556,102.348z M396.885,95.602
		C396.81,95.949,396.849,95.77,396.885,95.602L396.885,95.602z M397.799,95.239c0.06-0.063,0.12-0.125,0.182-0.185
		C397.979,95.154,397.957,95.203,397.799,95.239z M407.731,99.247C409.609,97.374,408.319,98.661,407.731,99.247L407.731,99.247z
		 M418.669,111.005C418.868,110.699,418.849,110.728,418.669,111.005L418.669,111.005z M405.179,96.971
		C405.455,97.13,405.582,97.205,405.179,96.971L405.179,96.971z M398.8,96.877C398.978,96.529,398.952,96.581,398.8,96.877
		L398.8,96.877z M410.376,102.529C410.234,102.333,410.831,103.16,410.376,102.529L410.376,102.529z M412.744,105.718
		C413.077,105.323,412.851,105.59,412.744,105.718L412.744,105.718z M408.915,100.798
		C409.306,100.69,409.28,100.697,408.915,100.798L408.915,100.798z M399.893,97.152C400.277,96.936,399.969,97.109,399.893,97.152
		L399.893,97.152z M412.38,106.356C413.545,105.966,412.703,106.248,412.38,106.356L412.38,106.356z M412.288,106.903
		C412.688,106.818,412.665,106.823,412.288,106.903L412.288,106.903z M404.086,97.243C405.013,96.032,404.131,97.185,404.086,97.243
		L404.086,97.243z M394.7,94.236C394.972,94.309,395.112,94.346,394.7,94.236L394.7,94.236z M394.425,93.232
		C394.715,93.392,394.905,93.498,394.425,93.232L394.425,93.232z M410.647,102.986C410.874,103.104,410.824,103.079,410.647,102.986
		L410.647,102.986z M410.376,103.295C410.629,103.383,411.035,103.524,410.376,103.295L410.376,103.295z M408.734,99.432
		C409.24,98.778,409.087,98.977,408.734,99.432L408.734,99.432z M405.817,96.149C405.65,96.742,405.776,96.293,405.817,96.149
		L405.817,96.149z M405.726,96.424C405.883,95.891,405.425,97.454,405.726,96.424L405.726,96.424z M410.923,103.258
		C411.515,102.112,411.052,103.009,410.923,103.258L410.923,103.258z M398.345,94.692c-1.298-0.537-0.306-0.264,0-0.185V94.692z
		 M396.523,94.964c-0.28-0.204-0.892-0.638-0.093-0.272C396.332,93.673,396.454,94.502,396.523,94.964z M408.278,98.793
		C409.003,97.186,408.012,99.383,408.278,98.793L408.278,98.793z M406.639,95.968C406.856,95.751,406.856,95.751,406.639,95.968
		L406.639,95.968z M406.73,95.786C406.652,95.828,406.531,95.894,406.73,95.786L406.73,95.786z M406.639,95.786
		C406.745,95.584,406.681,95.705,406.639,95.786L406.639,95.786z"/>
</g>
<g id="PA">
	<path fill="#B3B3B3" d="M218.893,60.604c6.263,0.592,5.036-6.708,11.954-3.734c0.62-3.326,2.039-1.625,3.833-3.009
		c3.363-1.214,5.899-2.41,9.401-2.916c2.106-0.304,10.959,1.994,12.407,1.095c3.338-2.072,2.588-2.972-0.548-5.745
		c0.648-1.812,10.592-6.184,14.445-4.007c4.618,2.609,1.582,5.763,4.103,8.204c1.224,1.185,3.346,1.528,4.927,3.012
		c4.413,4.141,9.003,3.917,12.954,6.927c2.138,7.417,12.109,21.833,11.854,29.081c0.869,1.272,3.559,3.873,6.291,5.271
		c2.097-0.51,25.035-34.821,26.947-21.783c4.927-1.216,21.229,8.636,21.336,11.577c2.161,0.438,5.087,1.665,6.38,2.824
		c0.625-0.532,0.857-1.454,1.368-1.916c-0.175,0.034-0.144-0.016,0-0.182c0.152,0,0.305,0,0.457,0
		c0.51,0.47-0.311,1.509-0.091,1.733c0.161-0.185,0.243-0.144,0.363,0c0.31-0.471,0.539-1.312,0.548-1.823
		c0.309,0.052,0.174,1.027,0.457,1.276c-0.186-0.019,0.675-1.544,0.638-1.458c0.512,0.573,0.573,1.664,1.081,2.187
		c0.082-0.021,0.143,0.009,0.183,0.09c0.061-0.121,0.122-0.121,0.185,0c0.178-0.1,0.504-1.643,0.453-1.638
		c0.788,0.755,0.521,1.649,1.185,2.551c0.113-0.127,0.205-0.127,0.276,0c0.337-0.674-0.377-1.951-0.091-2.28
		c1.77,0.417,3.642,0.585,4.191,1.005c-0.192,1.464-0.032,1.489,0.272,0.819c0.861-0.388,0.936-0.917,1.098,0.638
		c-0.132-0.096,0.031-0.733,0-1.004c0.207,0.341,0.082,0.871,0,1.37c0.095-0.024,0.306-0.428,0.366,0
		c0.273-0.084-0.183-0.19-0.184-0.182c-0.379,0.053,0.621-1.073,0.638-1.094c0.021,0.021,0.455-0.028,0.548-0.094
		c0.233,0.371,0.109,0.36,0.091,0.366c0.027,0.029,0.1,1.596,0.274,2.005c0.061,0,0.121,0,0.182,0
		c0.089-0.154-0.076-0.39,0.091-0.181c0.443-0.684,0.213-1.301,0.915-1.643c0,0.003-0.429,0.05-0.275-0.09
		c0.013,0.075,0.585,0.269,0.457,0.365c-0.115,0.75-0.318,0.681-0.272,1.368c0.05,0.023,1.282,0.423,0.91,0
		c0.235-0.761,0.436-0.626,0.549,0.823c0.813-1.08,1.248-0.814,0.729-1.642c0.394,0.208,0.337,0.08,0.366-0.275
		c0.106,0.255,0.537,0.611,0.819,1.004c-0.449,0.339-0.7,1.605-0.639,1.364c0.615-0.298,1.304-0.704,1.461,0.366
		c0.013-0.117,0.02-0.536,0.091-0.273c0.31-0.095,0.511-1.263,1.459-1.46c-0.747,1.775-0.435,1.178-0.822,2.461
		c0.092,0.069,0.152,0.161,0.183,0.275c0.015,0.004,0.525-1.218,0.823-0.185c-0.101-0.087-0.282,0.288-0.276,0.366
		c0.057,0.003,0.198-0.407,0.276-0.091c0.099,0.021-0.1-0.928-0.092-0.912c0.066,0.082,0.222-0.182,0.364-0.09
		c0.618,1.293-0.32,0.628,0.639,0.089c0-0.001,0.198,1.102-0.091,1.094c0.242-0.111,0.396,0.164,0.548,0.182
		c-0.021-0.199,0.028-0.303-0.364-0.273c0.702-0.604,0.604-0.736,1.096-1.642c0.78-0.83,0.714-0.523-0.001,0.638
		c0.026,0.198,0.792,0.843-0.273,2.462c0.571-0.715,1.243-1.786,1.551-2.462c0.411,0.28-0.547,1.946-0.547,1.917
		c0.243-0.231,0.391,0.178,0.456,0.273c0.7-1.251-0.692-0.691,0.276-0.273c-0.007,0.005,0.567-1.318,0.82-1.642
		c0.144,4.027-0.542,7.706-3.099,10.847c1.015,5.964-3.776,10.876-3.577,14.308c-0.155-0.014-0.125,0.017,0.092,0.091
		c-1.364,2.308-2.165,5.607-4.749,7.294c-0.086,0.106-0.269,0.586-0.272,0.73c-0.303,0.849-0.671,1.708-1.278,3.01
		c-3.802,9.226-11.395,14.082-22.957,23.691c1.784,0.166,4.736,1.898,5.743,2.096c3.101,4.088-0.807,6.926-0.819,12.218
		c-2.378,2.024-9.447,5.469-10.849,8.935c-2.806,6.94,1.697,9.326-0.094,14.951c-2.012,6.317-6.437,10.916-10.668,15.588
		c-1.199,1.325-0.786,5.076-1.915,5.836c-7.541,5.079-26.769,0.907-37.143,0.136c-27.373-2.036-53.327,1.929-64.122-17.006
		c-1.973-3.46-6.063-13.584-7.112-18.048c-3.313-14.095,9.903-32.77,17.409-49.4c3.695-8.188,4.753-16.109,10.934-21.238
		c-10.182,6.341-20.254-7.969-25.169-12.035c-0.327-0.271-0.558-0.242-0.638-0.728C219.437,96.403,218.878,71.923,218.893,60.604z
		 M390.781,92.504C390.739,92.491,391.733,92.802,390.781,92.504L390.781,92.504z M378.385,87.493l-0.092,0.09L378.385,87.493z
		 M389.321,90.591C389.222,90.689,389.22,90.69,389.321,90.591L389.321,90.591z M378.022,87.583h0.091
		c-0.091-0.03-0.121,0-0.091,0.091V87.583z M383.853,89.04C383.953,89.14,383.953,89.14,383.853,89.04L383.853,89.04z
		 M387.682,90.863C387.735,90.588,387.694,90.801,387.682,90.863L387.682,90.863z M386.041,91.594h-0.091
		C386.054,91.54,386.219,91.455,386.041,91.594z M367.265,86.761C367.417,86.841,367.398,86.831,367.265,86.761L367.265,86.761z
		 M386.86,91.594C387.219,90.961,386.772,91.75,386.86,91.594L386.86,91.594z M378.113,87.218
		C378.588,87.361,378.344,87.288,378.113,87.218L378.113,87.218z M386.679,90.772C385.668,91.122,386.479,90.841,386.679,90.772
		L386.679,90.772z"/>
</g>
<g id="SP">
	<path fill="#B3B3B3" d="M296.635,390.71c17.845-10.723,17.855-37.899,40.285-38.016c3.655-0.019,7.982,1.145,11.484,1.365
		c0.372,4.259,1.316,4.532,4.831,6.475c1.856-3.383,6.276-5.351,8.656-5.654c6.521,2.045,8.073-2.829,12.854,3.92
		c2.746,3.877,0.285,8.46,3.007,12.412c3.898,5.661,9.063,2.531,4.567,11.957c-0.015,0.311,1.406,0.596,1.641,0.822
		c-1.515,3.363,1.302,6.613,1.644,7.574c0.065,0.159-0.007,0.168,0,0.275c2.13,3.854,8.771,3.063,10.126,0.361
		c-0.082-0.32-0.597-0.692-0.182-1.641c0.047,0.027,0.257-0.335,0.272-0.365c0.207,0.147,0.389,0.117,0.547-0.092
		c0.431,0.486,20.998-1.912,20.351,1.463c-0.83,4.327-14.147,2.79-7.628,9.584c-2.414-0.424-2.518,0.714-4.471,0.82
		c-0.076,0.39,0.213,0.46,0.549,0.459c-1.736,0.747-1.447,0.611-2.647,1.186c-0.038,0.13-0.055,0.261,0.091,0.275
		c-0.028,0.152-0.283,0.289-0.638,0.363c-2.002,4.56-9.931,0.353-12.405,5.475c-1.573-0.379-1.362,1.063-2.829-0.184
		c-4.341,2.332-17.881,10.665-20.416,16.5c-0.398,0.217-2.516,1.786-2.552,1.822c0.315-0.322,0.649-0.626,1.001-0.91
		c-0.121-0.063-0.121-0.124,0-0.184c-0.503-0.747-2.25-0.868-3.015-3.375c-0.181,0.104-0.861,1.427-1.096,1.277
		c-1.033-0.003-0.291-1.039-2.644,0.455c0.712-5.899-2.484-6.777-6.756-6.391c-6.098,0.951-1.348-5.049-6.206-8.668
		c-2.635-4.419-0.194-9.654-6.595-15.52c-11.998,1.609-26.966-4.333-40.756-4.027C297.5,390.532,296.327,390.751,296.635,390.71z
		 M407.458,401.554c-0.114,0.004-0.03,0.012-0.091,0 M405.089,406.294v-0.09C405.196,406.363,405.396,406.655,405.089,406.294z
		 M391.69,407.48v-0.092V407.48z M402.537,403.378h0.092H402.537z M404.907,403.197c0.001-0.011,0.025-0.112-0.091,0H404.907z
		 M406.73,400.917v-0.092V400.917z M401.262,404.107v-0.092V404.107z M401.444,408.755v-0.092V408.755z M406.639,401.828
		C406.741,401.927,406.738,401.925,406.639,401.828L406.639,401.828z M401.077,408.755v-0.092V408.755z M401.716,407.845
		c0.562-0.114,0.653,1.489-2.462,0.822c0-0.151,0-0.304,0-0.455c0.653-0.625,1.573-1.162,1.733-2.281
		C402.208,406.583,402.594,408.189,401.716,407.845z M404.998,403.558h0.091H404.998z M402.353,407.298
		C402.428,407.223,402.428,407.223,402.353,407.298L402.353,407.298z M378.841,414.951h0.092H378.841z M406.73,401.189h0.091
		C406.726,401.228,406.588,401.288,406.73,401.189z M406.183,401.375C406.088,401.275,406.08,401.267,406.183,401.375
		L406.183,401.375z M395.791,406.931h0.094H395.791z M398.345,407.845c0.057-0.12,0.031-0.068,0.091-0.186
		C398.468,407.767,398.466,407.853,398.345,407.845z M379.751,415.044C379.862,415.149,379.848,415.136,379.751,415.044
		L379.751,415.044z M379.845,415.316C379.944,415.218,379.947,415.216,379.845,415.316L379.845,415.316z M407.277,401.828v0.09
		c0.059-0.113,0.035-0.065,0.091-0.182C407.385,401.84,407.42,402.007,407.277,401.828z M395.7,407.113
		C395.799,407.015,395.802,407.013,395.7,407.113L395.7,407.113z M401.444,404.287C401.634,404.215,401.72,404.183,401.444,404.287
		L401.444,404.287z M394.882,407.935C395.141,407.882,394.927,407.925,394.882,407.935L394.882,407.935z M403.266,403.833
		C403.578,403.885,403.357,403.848,403.266,403.833L403.266,403.833z M403.266,407.113
		C403.878,407.212,403.945,407.223,403.266,407.113L403.266,407.113z M404.633,403.378c0.008,0.082,0.039,0.552-0.272-0.094
		C404.39,403.48,404.486,403.519,404.633,403.378z"/>
</g>
<g id="RJ">
	<path fill="#B3B3B3" d="M407.003,398.82c1.408-3.854,7.66-3.882,8.393-5.934c2.053-5.753-5.101,0.148-5.297-3.012
		c-0.031-0.498-1.649-1.568-2.098-2.096c8.132-2.704,15.812-3.104,22.266-4.658c-0.048,0.012,0.11,0.515,0.185,0.549
		c3.099-1.696,7.882-3.771,11.666-5.473c-0.015-0.044-0.005-0.455,0-0.457c-0.865-2.458,1.633-6.718,1.551-9.857
		c6.554-5.912,4.434,3.742,12.96,3.832c0.058-0.118,0.032-0.065,0.09-0.184c-0.021,0.126,0.009,0.126,0.091,0
		c3.189,0.17,3.227,2.444,2.193,5.102c2.425,9.931-17.024,9.783-11.581,15.68c-0.08,0.167-1.369,1.295-1.368,1.732
		c-0.477,1.05-0.856,1.23-0.457,1.922c-4.523-1.055-11.072-0.586-15.128-0.824c0.247-0.354,0.351-1.73,1.458-3.285
		c-0.121-0.062-0.121-0.123,0-0.186c-0.048-0.003-0.272,0.05-0.182-0.09c-0.852,0.08-2.035,1.021-2.921,1.004
		c0.536,0.398-0.763,1.758,1.007,0.549c0.668,0.001-0.281,0.525-0.457,0.73c-0.157,0.146-0.024,0.377,0.547,0.637v-0.09
		c-0.009,0.118,0.075,0.121,0.182,0.09c0.002,0.026-0.022,0.15-0.091,0.367c-0.052,0.127-0.198,0.442,0.271,0.273
		c-0.731,0.679-2.259,0.941-3.371,0.639c-0.332,0.133,0.732,0.005,0.637,0c1.169,0.258,0.157,0.501-1.55,0.729
		c-0.416-0.1-0.891,0.114-1.096,0.549c-0.014-0.144-0.143-0.128-0.271-0.09c-1.013,0.111-3.979-0.151-5.653,0.365
		c-0.155,0.122,1.745-1.453,1.094-1.096c1.283-0.03,3.593,0.521,4.651,0.639c-0.237-0.216,0.323-0.203,0-0.182
		c-2.215-1.694-3.759-1.413-4.107-1.461c-0.401,0.128-0.591,0.09-0.639,0c-1.403,0.579-4.169,1.05-5.384,0.914
		c-0.238-0.16-0.191-0.591-0.182-0.639c-0.069-0.106-0.181-0.255,0.091-0.184c-0.719,0.026-1.567,0.369-3.859,1.281v0.09
		c-0.767-0.122-1.157,0.238-1.001,1.096c-0.073,0.083-0.311,0.454-0.458,0.73c0.627,0.359,0.836,0.326,0.917,0.639
		c0.395-0.354,0.037-0.137-0.182,0c-0.039,0.107-0.378,1.091,1.459-0.182c-0.421,0.759-0.02,0.925,0.452,0.912
		c-0.055,0.155-0.951,0.868-1.459,1.006c-0.277-0.348-0.696-0.282-1.187,0.09c-0.112-0.124-0.146-0.093-0.091,0.092
		C408.063,400.25,407.518,399.673,407.003,398.82z M449.838,387.703C449.941,387.593,449.93,387.605,449.838,387.703
		L449.838,387.703z M449.656,387.794C449.881,387.827,449.83,387.82,449.656,387.794L449.656,387.794z M429.695,396.451v-0.092
		V396.451z M425.412,396.724h0.091H425.412z M417.393,396.269v0.09V396.269z M409.738,397.453c-0.03,0.091-0.001,0.122,0.09,0.092
		C409.737,397.575,409.708,397.543,409.738,397.453z M420.673,395.265v-0.09c0.064,0.065,0.158,0.152,0,0.182h0.091
		C420.673,395.387,420.642,395.357,420.673,395.265z M419.306,395.265C419.348,395.189,419.415,395.067,419.306,395.265
		L419.306,395.265z M428.604,396.451C428.498,396.347,428.504,396.353,428.604,396.451L428.604,396.451z M409.647,397.453v0.092
		V397.453z M409.919,399.277C409.743,399.234,409.694,399.222,409.919,399.277L409.919,399.277z M409.647,398.457h0.091H409.647z
		 M411.194,399.732v-0.09V399.732z M410.831,397.181h0.092c-0.092-0.03-0.122,0-0.092,0.092V397.181z M411.284,396.724
		c0.238-0.016,0.196,0.077,0.095,0.182v-0.09C411.302,397.011,411.291,396.751,411.284,396.724z M419.488,395.449h0.091H419.488z
		 M410.376,396.816c0.061,0,0.12,0,0.181,0c-0.104,0.018-0.164,0.077-0.181,0.182C410.376,396.937,410.376,396.876,410.376,396.816z
		 M424.684,397.087h0.09H424.684z M417.028,396.541v0.094V396.541v0.094V396.541z M428.147,396.541
		C428.246,396.443,428.249,396.441,428.147,396.541L428.147,396.541z M419.488,396.359v-0.09V396.359z M429.513,396.359h0.091
		H429.513z M411.194,400.917c-0.03-0.092,0-0.122,0.091-0.092C411.194,400.795,411.164,400.826,411.194,400.917z M409.919,398.273
		c-0.03-0.092,0-0.122,0.091-0.092C409.919,398.151,409.888,398.181,409.919,398.273z M419.578,396.269v0.09V396.269z
		 M420.034,395.904C420.135,395.803,420.135,395.803,420.034,395.904L420.034,395.904z M429.513,396.541
		c0.091,0.03,0.121,0,0.091-0.09C429.635,396.541,429.604,396.571,429.513,396.541z M410.01,398.548v-0.092c0,0.061,0,0.121,0,0.182
		V398.548z M411.013,398.73C410.926,398.847,410.454,399.482,411.013,398.73L411.013,398.73z M410.647,396.906
		C410.818,396.705,410.817,396.705,410.647,396.906L410.647,396.906z M425.412,396.906v-0.09V396.906z M411.104,398.638
		C411.203,398.54,411.203,398.54,411.104,398.638L411.104,398.638z M430.241,396.816c0.091-0.03,0.121,0,0.091,0.09
		C430.362,396.816,430.332,396.786,430.241,396.816z M420.034,395.722h0.092H420.034z M417.118,396.541
		C417.188,396.472,417.196,396.465,417.118,396.541L417.118,396.541z M429.604,396.906
		C429.703,397.005,429.705,397.008,429.604,396.906L429.604,396.906z M410.194,396.998c0.029-0.134,0.062-0.134,0.091,0v-0.092
		C410.315,396.998,410.285,397.028,410.194,396.998z M430.789,392.804C430.86,392.367,430.824,392.589,430.789,392.804
		L430.789,392.804z M409.556,398.181C409.762,398.265,409.667,398.226,409.556,398.181L409.556,398.181z M418.121,396.087
		C418.649,396.044,418.385,396.066,418.121,396.087L418.121,396.087z M419.673,396.087
		C420.096,395.692,419.828,395.943,419.673,396.087L419.673,396.087z M429.057,394.08
		C429.172,394.338,429.094,394.163,429.057,394.08L429.057,394.08z M415.477,398.82c-0.69-0.122-1.167-0.079-1.458-0.184
		c0.114-0.285-0.131-0.086-0.272-0.182c1.223-1.072,1.355-0.725,2.553-1.006c-0.36-0.131,1.034,0.555,1.003,0.549
		c-0.014,0.101,0.017,0.191,0.091,0.271C417.315,398.328,416.385,398.629,415.477,398.82z"/>
</g>
<g id="ES">
	<path fill="#B3B3B3" d="M447.377,365.101c-0.983-6.502,11.615-14.442,12.675-21.979c0.235-1.671-2.756-3.819-4.199-4.566
		c0.128-0.081,0.128-0.111,0-0.09c0.125-0.121,0.125-0.243,0-0.365c1.339-0.055,2.941-0.132,4.379-0.092
		c-2.215-2.57-0.96-3.123-3.557-5.201c2.669-3.128,0.892-4.177,5.563-3.918c-0.212-0.379-1.798-2.014-1.821-2.277
		c0.103-0.039,0.26-0.154,0.272-0.277c2.369-0.64,12.33-1.898,16.323,5.195c5.225,9.281-7.047,21.961-8.404,27.164
		c0.075,0.153,0.085,0.201,0.366,0.182c-0.135,0.029-0.135,0.061,0,0.09c-0.136,0.03-0.136,0.062,0,0.092
		c-0.717,1.166-1.639,3.01-2.099,4.195c-0.591,0.024-0.911,0.244-0.913,0.455c-0.704,1.38-1.396,2.599-2.007,1.549
		c-0.288,0.445-0.733,0.753-1.187,0.82c-0.188,0.885-2.313,4.488-3.101,6.383c-0.836-0.935-1.853-0.68-2.922-0.912
		c-0.082,0.126-0.112,0.126-0.091,0c-0.06,0.118-0.033,0.064-0.09,0.186C450.784,371.672,448.687,368.489,447.377,365.101z
		 M467.699,361.728h0.091H467.699z M467.519,363.003v-0.092V363.003z M467.338,362.73h-0.092H467.338z M465.786,363.64
		C465.063,363.986,465.323,363.862,465.786,363.64L465.786,363.64z M467.428,363.003v-0.092V363.003z M468.522,359.724h0.091
		H468.522z"/>
</g>
<g id="SC">
	<path fill="#B3B3B3" d="M286.882,453.687c1.277-1.738,2.415-4.535,1.463-7.217c-3.108-7.417,11.086-4.236,19.339-2.633
		c3.694,0.718,8.538,2.272,11.673,3.561c2.579-6.568,7.976-5.879,12.587-9.494c-0.02-0.037,0.017-0.075,0.273,0.09
		c0.375,0.14,1.731,1.365,1.643,1.277c1.896-1.77,2.16-0.589,3.467-1.096c2.469-0.207,4.615,0.629,6.204,2.188
		c0.343,0.26,0.688,0.338,0.77,0.273c0.334,0.023,0.442-0.011,0.821-0.275c0.06-0.309,0.511-0.571,1.005-0.547
		c0.224-0.06,0.566-0.26,0.73-0.455c0.376-0.115,0.883-0.468,0.914-0.549c0.113-0.136,0.337-0.349,0.362-0.365
		c0.518-0.572,1.314-0.934,1.919-0.916c9.26-3.4,7.278,5.231,7.302,10.939c0.199,2.83-1.133,4.395,1.369,4.74
		c0.031,0.207,0.092,0.237,0.182,0.092c-0.378,0.342-0.588,0.572-0.091,0.818c-0.173,0.169-1.143,0.18-1.826,0.275
		c0.084,0.198,0.054,0.351-0.09,0.457c0.651,2.612,0.686,7.158-0.183,11.861c-0.004,7.062-9.564,10.454-14.859,16.59
		c-2.049-0.438-2.081-1.745-5.111-0.729c0.165,0.294,1.091,0.988,1.097,1.275c-0.427-0.171-1.826-0.956-1.368-1.277
		c-0.198-0.866,0.303-0.74,0.725-0.547c-0.191-0.013-0.114-0.156,0-0.271c-0.263-0.227-0.267-0.432,0.182-0.543
		c-0.159,0.074-0.438,0.195-0.091,0.271c0.469,0.053,1.005-0.266,1.554-0.82c0.166-0.398,0.47-1.084-0.365-0.547
		c0.622-0.629,0.78-1.168,0.64-2.102c-0.428-0.211-0.187-0.473,0.183-0.729c-0.5-0.238-0.538-0.858-0.271-1.551
		c0.808-0.646,0.438-0.403,1.188-0.824h-0.092c0.721-0.505,0.719-0.969,2.373-1.188c-0.544-0.949-0.654-1.438-1.005-2.188
		c-0.937,0.768-0.93-0.079-1.187-0.184c-9.346,1.09-10.427-4.596-19.613-10.656c-4.148-2.736-7.057-1.973-8.577-4.104
		c-5.192-1.166-7.911-2.044-13.775-2.184c-0.072-0.068-0.269-0.178-0.367-0.186c-0.34-0.301-0.061-1.298-0.274-1.73
		c-1.562,0.518-2.091,0.911-4.011,1.826C292.305,453.257,290.101,453.36,286.882,453.687z M357.515,458.242v-0.09V458.242z
		 M357.515,461.068c0.612-1.261,0.727-2.461,0.271-3.377c1.825,0.488,1.318-2.1,2.554-0.273
		C358.677,462.386,358.826,462.193,357.515,461.068z M357.605,457.97h-0.09c0.091,0.03,0.12-0.001,0.09-0.092
		c0,0.061,0,0.121,0,0.182V457.97z"/>
</g>
<g id="PB">
	<path fill="#B3B3B3" d="M489.117,173.253c1.689-0.744,2.121-1.77,1.462-3.19c0.068-1.103,0.764-2.544,1.915-3.741
		c-0.19,0.003-1.035-0.045-1.186-0.272c0.104,0.04,0.226-0.08,0.181-0.185c0.008,0.004,1.359-0.497,1.735-0.638
		c2.758,3.014,6.708,2.67,9.487-0.543c1.325-1.303,4.725-2.993,7.838-3.369c-1.918,2.341-2.738,6.362-4.193,9.207
		c5.275,0.387,7.588,0.073,10.3,3.74c1.608-1.586,3.559-4.333,3.736-4.834c-0.837-3.922-1.188-1.784,1.729-4.83
		c3.519,3.725,12.857,3.125,17.967,2.826c0.226,1.367,0.301,3.073,0.457,3.92c0.757,1.259,1.155,2.707,1.002,3.372
		c-0.03-0.066,0.254,0.321,0.274-0.638c2.187,8.994-14.098,10.184-22.251,13.216c-4.343,1.615-6.671,7.124-11.304,0.819
		c0.03-0.123-0.031-0.153-0.186-0.091c0.07-0.116,0.101-0.237,0.091-0.366c2.246-2.162,1.934-3.56,4.829-6.474
		c-6.508-7.413-15.558,10.908-22.521,2.463C489.4,182.337,491.72,176.431,489.117,173.253z"/>
</g>
</svg>
